# xmcd
#
# Track frame offsets: 
#        150
#        21100
#        40675
#        52387
#        69125
#        89400
#        102687
#        116600
#        134300
#        148162
#        167400
#        177825
#        198675
#        226350
#
# Disc length: 3466 seconds
#
# Revision: 4
# Processed by: cddbd v1.5.1PL2 Copyright (c) Steve Scherf et al.
# Submitted via: ExactAudioCopy v0.95b3
#
DISCID=c80d880e
DTITLE=Hollywood Fats Band - Rock This House
DYEAR=1979
DGENRE=Blues
TTITLE0=Rock This House
TTITLE1=She's Dynamite
TTITLE2=Okie Dokie Stomp
TTITLE3=Suitcase Blues
TTITLE4=Red Headed Woman
TTITLE5=Lonesome
TTITLE6=All Pretty Women
TTITLE7=Prettiest Liitle Thing
TTITLE8=Caldonia
TTITLE9=Poor Boy
TTITLE10=Have A Good Time
TTITLE11=Too Many Drivers
TTITLE12=I Got My Eyes
TTITLE13=Little Girl
EXTD=
EXTT0=
EXTT1=
EXTT2=
EXTT3=
EXTT4=
EXTT5=
EXTT6=
EXTT7=
EXTT8=
EXTT9=
EXTT10=
EXTT11=
EXTT12=
EXTT13=
PLAYORDER=
